<svg xmlns="http://www.w3.org/2000/svg" width="800" height="800" viewBox="0 0 800 800" fill="none"><g clip-path="url(#clip0_1_54)">
<path d="M800 400C800 620.911 620.911 800 400 800C179.089 800 0 620.911 0 400C0 179.089 179.089 0 400 0C620.911 0 800 179.089 800 400Z" fill="#A985A7"></path>
<path d="M197.689 744.644C213.244 753.8 229.267 762.2 246.089 769.222L392.222 444.444H360.689L197.689 744.644ZM439.333 444.444H407.778L553.933 769.222C570.606 762.138 586.777 753.927 602.333 744.644L439.333 444.444Z" fill="#808285"></path>
<path d="M266.667 577.778H311.111V622.222H266.667V577.778ZM488.889 577.778H533.333V622.222H488.889V577.778Z" fill="#58595B"></path>
<path d="M577.778 555.556C577.778 567.343 573.095 578.648 564.76 586.982C556.425 595.317 545.121 600 533.333 600H266.667C254.879 600 243.575 595.317 235.24 586.982C226.905 578.648 222.222 567.343 222.222 555.556V511.111C222.222 499.324 226.905 488.019 235.24 479.684C243.575 471.349 254.879 466.667 266.667 466.667H533.333C545.121 466.667 556.425 471.349 564.76 479.684C573.095 488.019 577.778 499.324 577.778 511.111V555.556Z" fill="#A7A9AC"></path>
<g clip-path="url(#clip1_1_54)">
<path d="M541.4 133.333H258.578C237.148 133.333 216.596 141.846 201.444 156.999C186.291 172.152 177.778 192.704 177.778 214.133V511.111C177.778 522.899 182.46 534.203 190.795 542.538C199.13 550.873 210.435 555.556 222.222 555.556H577.778C589.565 555.556 600.87 550.873 609.205 542.538C617.54 534.203 622.222 522.899 622.222 511.111V214.133C622.222 203.521 620.132 193.012 616.07 183.207C612.008 173.403 606.054 164.495 598.549 156.991C591.043 149.488 582.133 143.537 572.328 139.477C562.522 135.418 552.013 133.33 541.4 133.333Z" fill="#D1D3D4"></path>
<path d="M218 178C218 153.147 238.147 133 263 133H538C562.853 133 583 153.147 583 178V416H218V178Z" fill="#585F63"></path>
<path d="M294 162C294 173.046 285.046 182 274 182C262.954 182 254 173.046 254 162C254 150.954 262.954 142 274 142C285.046 142 294 150.954 294 162Z" fill="#FFD983"></path>
<path d="M547 162C547 173.046 538.046 182 527 182C515.954 182 507 173.046 507 162C507 150.954 515.954 142 527 142C538.046 142 547 150.954 547 162Z" fill="#FFD983"></path>
<path d="M327 235C327 217.879 340.879 204 358 204H443C460.121 204 474 217.879 474 235V416H327V235Z" fill="#727A7E"></path>
<path d="M343 252C343 234.879 356.879 221 374 221H427C444.121 221 458 234.879 458 252V403H343V252Z" fill="#55ACEE"></path>
<path d="M497 252C497 234.879 510.879 221 528 221H583V403H497V252Z" fill="#55ACEE"></path>
<path d="M218 221H273C290.121 221 304 234.879 304 252V403H218V221Z" fill="#55ACEE"></path>
<g clip-path="url(#clip2_1_54)">
<path d="M425.634 481.465L388.465 489.366C378.201 491.547 371.649 501.637 373.83 511.901C376.012 522.165 386.101 528.717 396.366 526.535L433.535 518.635C443.799 516.453 450.351 506.364 448.17 496.099C445.988 485.835 435.899 479.283 425.634 481.465Z" fill="#03628D"></path>
</g>
</g>
<path d="M222.222 466.667H311.111V511.111H222.222V466.667ZM488.889 466.667H577.778V511.111H488.889V466.667Z" fill="#FFD983"></path>
<g clip-path="url(#clip3_1_54)">
<path d="M404.634 440.465L367.465 448.366C357.201 450.547 350.649 460.637 352.83 470.901C355.012 481.165 365.101 487.717 375.366 485.535L412.535 477.635C422.799 475.453 429.351 465.364 427.17 455.099C424.988 444.835 414.899 438.283 404.634 440.465Z" fill="#46AF3B"></path>
</g>
</g><defs>
<clipPath id="clip0_1_54">
<rect width="800" height="800" fill="white"></rect>
</clipPath>
<clipPath id="clip1_1_54">
<rect width="444.444" height="422.222" fill="white" transform="translate(177.778 133.333)"></rect>
</clipPath>
<clipPath id="clip2_1_54">
<rect width="76" height="38" fill="white" transform="translate(369.88 493.316) rotate(-12)"></rect>
</clipPath>
<clipPath id="clip3_1_54">
<rect width="76" height="38" fill="white" transform="translate(348.88 452.316) rotate(-12)"></rect>
</clipPath>
</defs></svg>